<svg width="49" height="50" viewBox="0 0 49 50" fill="none" xmlns="http://www.w3.org/2000/svg">
<circle cx="24.5" cy="24.7681" r="24.5" fill="url(#paint0_linear_1_1486)"/>
<g clip-path="url(#clip0_1_1486)">
<path d="M18.5522 35.5875C19.3917 36.427 20.7544 36.427 21.5938 35.5875L32.0065 25.1748C32.3055 24.8758 32.5355 24.5194 32.685 24.1399C33.7314 24.4331 34.7491 24.5884 35.6461 24.5826C37.8655 24.5711 38.6014 23.5994 38.8429 23.0187C39.0844 22.4437 39.2569 21.2363 37.6987 19.6494C37.6815 19.6321 37.6642 19.6149 37.647 19.5976C36.681 18.6317 35.2781 17.7405 33.6854 17.0792C33.3922 16.9585 33.099 16.8493 32.8115 16.7458V16.7285C32.7942 15.4521 31.765 14.4229 30.4886 14.4056L24.2502 14.3194C23.4222 14.3079 22.6288 14.6299 22.048 15.2163L11.6296 25.629C10.7901 26.4685 10.7901 27.8312 11.6296 28.6706L18.5522 35.5875ZM26.5788 18.0452C27.2745 17.3495 28.4015 17.3495 29.0972 18.0452C29.5112 18.4592 29.6779 19.0284 29.5974 19.5631C30.2816 20.0461 31.0981 20.4946 31.972 20.8568C32.2825 20.9833 32.5815 21.0983 32.869 21.196L32.8345 18.6892C32.8862 18.7122 32.9322 18.7294 32.984 18.7524C34.3467 19.3216 35.5713 20.0921 36.359 20.8798C36.3705 20.8913 36.382 20.9028 36.3935 20.9143C37.141 21.679 37.2215 22.1677 37.1583 22.3172C36.9628 22.7829 34.8641 23.1969 31.6788 21.8687C30.7473 21.4778 29.8734 20.9948 29.1662 20.4716C29.1432 20.5003 29.1144 20.5291 29.0914 20.5578C28.3957 21.2535 27.2688 21.2535 26.5731 20.5578C25.8831 19.8678 25.8831 18.7409 26.5788 18.0452Z" fill="white"/>
</g>
<defs>
<linearGradient id="paint0_linear_1_1486" x1="22.3782" y1="3.26844" x2="22.3782" y2="82.8277" gradientUnits="userSpaceOnUse">
<stop stop-color="#E64B13"/>
<stop offset="1" stop-color="#FAFF00"/>
</linearGradient>
<clipPath id="clip0_1_1486">
<rect width="28" height="28" fill="white" transform="translate(11 11.2681)"/>
</clipPath>
</defs>
</svg>
