<svg width="49" height="50" viewBox="0 0 49 50" fill="none" xmlns="http://www.w3.org/2000/svg">
<circle cx="24.5" cy="24.5488" r="24.5" fill="url(#paint0_linear_1_1134)"/>
<g clip-path="url(#clip0_1_1134)">
<path d="M34.5673 26.857C34.258 22.8302 32.3832 20.3068 30.7292 18.0801C29.1977 16.0186 27.875 14.2384 27.875 11.6123C27.875 11.4014 27.7569 11.2086 27.5696 11.1119C27.3817 11.0147 27.1559 11.0306 26.9851 11.1547C24.5011 12.9322 22.4285 15.928 21.7046 18.7864C21.2019 20.7764 21.1354 23.0136 21.1261 24.4912C18.8322 24.0012 18.3125 20.5699 18.307 20.5325C18.2812 20.3545 18.1725 20.1997 18.0143 20.1151C17.8544 20.0316 17.6665 20.0255 17.5045 20.1057C17.3842 20.164 14.5519 21.6031 14.3871 27.3491C14.3755 27.5402 14.375 27.732 14.375 27.9237C14.375 33.506 18.9173 38.048 24.5 38.048C24.5077 38.0485 24.5159 38.0496 24.5225 38.048C24.5247 38.048 24.5269 38.048 24.5296 38.048C30.0987 38.032 34.625 33.4961 34.625 27.9237C34.625 27.643 34.5673 26.857 34.5673 26.857ZM24.5 36.9231C22.6389 36.9231 21.125 35.3104 21.125 33.328C21.125 33.2605 21.1245 33.1924 21.1294 33.1089C21.1519 32.2729 21.3107 31.7022 21.4848 31.3226C21.8111 32.0235 22.3945 32.6678 23.3421 32.6678C23.653 32.6678 23.9046 32.4162 23.9046 32.1053C23.9046 31.3045 23.9211 30.3806 24.1205 29.5468C24.2979 28.8074 24.722 28.0209 25.2592 27.3903C25.4982 28.2087 25.964 28.8711 26.4188 29.5177C27.0698 30.4426 27.7427 31.399 27.8608 33.0298C27.8679 33.1264 27.8751 33.2237 27.8751 33.328C27.875 35.3103 26.3611 36.9231 24.5 36.9231Z" fill="white"/>
</g>
<defs>
<linearGradient id="paint0_linear_1_1134" x1="22.3782" y1="3.0492" x2="22.3782" y2="82.6085" gradientUnits="userSpaceOnUse">
<stop stop-color="#E64B13"/>
<stop offset="1" stop-color="#FAFF00"/>
</linearGradient>
<clipPath id="clip0_1_1134">
<rect width="27" height="27" fill="white" transform="translate(11 11.0488)"/>
</clipPath>
</defs>
</svg>
