<svg width="49" height="50" viewBox="0 0 49 50" fill="none" xmlns="http://www.w3.org/2000/svg">
<circle cx="24.5" cy="24.5469" r="24.5" fill="url(#paint0_linear_1_1163)"/>
<path d="M20.249 32.3109C18.973 32.3109 17.8363 31.9955 16.839 31.3649C15.8417 30.7342 15.057 29.8249 14.485 28.6369C13.9277 27.4342 13.649 26.0042 13.649 24.3469C13.649 22.6895 13.9277 21.2669 14.485 20.0789C15.057 18.8762 15.8417 17.9595 16.839 17.3289C17.8363 16.6982 18.973 16.3829 20.249 16.3829C21.525 16.3829 22.6617 16.6982 23.659 17.3289C24.6563 17.9595 25.4337 18.8762 25.991 20.0789C26.563 21.2669 26.849 22.6895 26.849 24.3469C26.849 26.0042 26.563 27.4342 25.991 28.6369C25.4337 29.8249 24.6563 30.7342 23.659 31.3649C22.6617 31.9955 21.525 32.3109 20.249 32.3109ZM20.249 29.2969C21.1877 29.2969 21.921 28.8935 22.449 28.0869C22.9917 27.2802 23.263 26.0335 23.263 24.3469C23.263 22.6602 22.9917 21.4135 22.449 20.6069C21.921 19.8002 21.1877 19.3969 20.249 19.3969C19.325 19.3969 18.5917 19.8002 18.049 20.6069C17.521 21.4135 17.257 22.6602 17.257 24.3469C17.257 26.0335 17.521 27.2802 18.049 28.0869C18.5917 28.8935 19.325 29.2969 20.249 29.2969ZM34.3918 16.6469V32.0469H30.8277V19.5069H27.7478V16.6469H34.3918Z" fill="white"/>
<defs>
<linearGradient id="paint0_linear_1_1163" x1="22.3782" y1="3.04724" x2="22.3782" y2="82.6065" gradientUnits="userSpaceOnUse">
<stop stop-color="#E64B13"/>
<stop offset="1" stop-color="#FAFF00"/>
</linearGradient>
</defs>
</svg>
