<svg width="49" height="50" viewBox="0 0 49 50" fill="none" xmlns="http://www.w3.org/2000/svg">
<circle cx="24.5" cy="25" r="24.5" fill="url(#paint0_linear_1_1203)"/>
<path d="M18.0469 32.764C16.7855 32.764 15.6562 32.456 14.6589 31.84C13.6615 31.2093 12.8769 30.3 12.3049 29.112C11.7329 27.924 11.4469 26.4867 11.4469 24.8C11.4469 23.1133 11.7329 21.676 12.3049 20.488C12.8769 19.3 13.6615 18.398 14.6589 17.782C15.6562 17.1513 16.7855 16.836 18.0469 16.836C19.3229 16.836 20.4522 17.1513 21.4349 17.782C22.4322 18.398 23.2169 19.3 23.7889 20.488C24.3609 21.676 24.6469 23.1133 24.6469 24.8C24.6469 26.4867 24.3609 27.924 23.7889 29.112C23.2169 30.3 22.4322 31.2093 21.4349 31.84C20.4522 32.456 19.3229 32.764 18.0469 32.764ZM18.0469 29.75C18.6482 29.75 19.1689 29.5813 19.6089 29.244C20.0635 28.9067 20.4155 28.3713 20.6649 27.638C20.9289 26.9047 21.0609 25.9587 21.0609 24.8C21.0609 23.6413 20.9289 22.6953 20.6649 21.962C20.4155 21.2287 20.0635 20.6933 19.6089 20.356C19.1689 20.0187 18.6482 19.85 18.0469 19.85C17.4602 19.85 16.9395 20.0187 16.4849 20.356C16.0449 20.6933 15.6929 21.2287 15.4289 21.962C15.1795 22.6953 15.0549 23.6413 15.0549 24.8C15.0549 25.9587 15.1795 26.9047 15.4289 27.638C15.6929 28.3713 16.0449 28.9067 16.4849 29.244C16.9395 29.5813 17.4602 29.75 18.0469 29.75ZM26.1606 32.5V30.19L32.1006 24.58C32.5699 24.1547 32.9146 23.7733 33.1346 23.436C33.3546 23.0987 33.5012 22.7907 33.5746 22.512C33.6626 22.2333 33.7066 21.9767 33.7066 21.742C33.7066 21.126 33.4939 20.6567 33.0686 20.334C32.6579 19.9967 32.0492 19.828 31.2426 19.828C30.5972 19.828 29.9959 19.9527 29.4386 20.202C28.8959 20.4513 28.4339 20.84 28.0526 21.368L25.4566 19.696C26.0432 18.816 26.8646 18.1193 27.9206 17.606C28.9766 17.0927 30.1939 16.836 31.5726 16.836C32.7166 16.836 33.7139 17.0267 34.5646 17.408C35.4299 17.7747 36.0972 18.2953 36.5666 18.97C37.0506 19.6447 37.2926 20.4513 37.2926 21.39C37.2926 21.8887 37.2266 22.3873 37.0946 22.886C36.9772 23.37 36.7279 23.8833 36.3466 24.426C35.9799 24.9687 35.4372 25.5773 34.7186 26.252L29.7906 30.894L29.1086 29.596H37.7986V32.5H26.1606Z" fill="white"/>
<defs>
<linearGradient id="paint0_linear_1_1203" x1="22.3782" y1="3.50037" x2="22.3782" y2="83.0597" gradientUnits="userSpaceOnUse">
<stop stop-color="#E64B13"/>
<stop offset="1" stop-color="#FAFF00"/>
</linearGradient>
</defs>
</svg>
